<?xml version="1.0" ?><!DOCTYPE svg  PUBLIC '-//W3C//DTD SVG 1.1//EN'  'http://www.w3.org/Graphics/SVG/1.1/DTD/svg11.dtd'><svg enable-background="new 0 0 32 32" height="32px" id="Layer_1" version="1.1" viewBox="0 0 32 32" width="32px" xml:space="preserve" xmlns="http://www.w3.org/2000/svg" xmlns:xlink="http://www.w3.org/1999/xlink"><path d="M29.977,7.119C29.981,7.078,30,7.042,30,7V3c0-0.552-0.447-1-1-1H3C2.448,2,2,2.448,2,3v4c0,0.042,0.019,0.078,0.024,0.119  c0.008,0.068,0.018,0.133,0.041,0.2s0.055,0.124,0.09,0.183C2.175,7.537,2.182,7.577,2.208,7.61L12,20.34V29  c0,0.369,0.203,0.708,0.528,0.882C12.676,29.961,12.838,30,13,30c0.194,0,0.387-0.057,0.555-0.168l6-4  C19.833,25.646,20,25.334,20,25v-4.659L29.793,7.61c0.025-0.034,0.033-0.074,0.054-0.109c0.035-0.059,0.066-0.116,0.089-0.182  C29.958,7.252,29.968,7.187,29.977,7.119z M18,24.465l-4,2.667V20c0-0.042-0.019-0.078-0.024-0.119  c-0.008-0.068-0.018-0.133-0.041-0.2s-0.055-0.124-0.09-0.183c-0.021-0.035-0.028-0.075-0.053-0.108L5.031,8H21c0.553,0,1-0.448,1-1  s-0.447-1-1-1H4V4h24v2h-4c-0.553,0-1,0.448-1,1s0.447,1,1,1h2.969l-8.762,11.39c-0.025,0.034-0.033,0.074-0.054,0.11  c-0.035,0.059-0.066,0.116-0.089,0.182s-0.032,0.131-0.041,0.2C18.019,19.922,18,19.958,18,20V24.465z"/></svg>